# xmcd CD database file
#
# Track frame offsets:
#	150
#	13026
#	26090
#	40028
#	47883
#	62385
#	75136
#	86221
#	100810
#	111131
#	124713
#	135919
#	154171
#	163844
#	182657
#
# Disc length: 2570 seconds
#
# Revision: 0
# Processed by: cddbd v1.5.1PL0 Copyright (c) Steve Scherf et al.
# Submitted via: CDex 1.51
#
DISCID=b20a080f
DTITLE=Bruce Brown - I Believe It
DYEAR=2000
DGENRE=Jazz
TTITLE0=The Bland Leading the Bland
TTITLE1=I Believe It
TTITLE2=Why Don't You Dig Me
TTITLE3=The Co-Dependancy Blues
TTITLE4=I Can't be Choosy
TTITLE5=Be Kind to Yourself
TTITLE6=Rollo
TTITLE7=Lonely in Heaven
TTITLE8=Moment's Notice
TTITLE9=Here I Go Again
TTITLE10=When They Broke the Mold, They Made You
TTITLE11=Let's Go Watch T.V.
TTITLE12=I've Still Got It
TTITLE13=But There's No You
TTITLE14=It Must Be Love
EXTD=YEAR: 2000
EXTT0=
EXTT1=
EXTT2=
EXTT3=
EXTT4=
EXTT5=
EXTT6=
EXTT7=
EXTT8=
EXTT9=
EXTT10=
EXTT11=
EXTT12=
EXTT13=
EXTT14=
PLAYORDER=
